<svg width="102" height="97" viewBox="0 0 102 97" fill="none" xmlns="http://www.w3.org/2000/svg">
<path fill-rule="evenodd" clip-rule="evenodd" d="M0 0H102V97H0V0Z" />
<path fill-rule="evenodd" clip-rule="evenodd" d="M68.6996 84.0303C67.4851 83.8472 66.404 83.7908 66.404 83.1708C66.404 82.9313 66.5517 82.6782 66.7887 82.5096C66.9967 82.3541 67.5444 82.2977 67.9143 82.2977C68.3 82.2977 68.6853 82.4809 68.9218 82.7205C69.0694 82.8895 69.2472 83.1572 69.2774 83.4391H71.2475C71.203 82.7491 70.8919 82.0728 70.3289 81.6924C69.7812 81.3119 69.07 80.8469 68.0921 80.8469C67.1597 80.8469 66.241 80.8756 65.6045 81.326C64.9668 81.7623 64.508 82.4945 64.508 83.1291C64.508 83.4954 64.4789 83.9317 64.6271 84.1989C64.7906 84.4666 65.2637 85.0167 65.6336 85.2275C66.1521 85.5093 67.3666 85.6221 68.0333 85.7911C68.581 85.9174 69.2478 85.9461 69.3965 86.4675C69.4843 86.777 69.3811 87.0588 69.0853 87.2419C68.8033 87.4246 68.3741 87.5514 67.9 87.5514C67.411 87.5514 66.9369 87.411 66.6998 87.1292C66.4929 86.8615 66.3744 86.6079 66.2109 86.1993H64.2408C64.2852 87.0583 64.7895 87.9037 65.4108 88.3828C66.0183 88.8477 66.8332 89.0727 67.8693 89.0727C68.907 89.0727 69.8103 88.9036 70.477 88.4527C71.1279 88.0023 71.4835 87.1574 71.4835 86.4675C71.4835 85.8757 71.3057 85.4107 71.0247 85.0449C70.4474 84.3262 69.4108 84.1295 68.6996 84.0303ZM43.0165 88.8482H45.0162V80.9597H43.0165V88.8482ZM43.0165 80.4247H45.031V78.523H43.0165V80.4247ZM40.0986 82.0023C39.3583 81.4523 38.4106 81.0724 37.3734 81.0442H37.2697C34.9737 81.0442 33.1078 82.8191 33.1078 84.9885C33.1078 87.1715 34.9737 88.9605 37.2697 88.9605H37.3734C38.4101 88.9469 39.3578 88.5518 40.0844 87.876L40.0986 88.8487H41.9946V78.5235H40.0986V82.0023ZM37.3882 87.3406H37.3734C36.7178 87.3395 36.0894 87.0914 35.6258 86.6505C35.1622 86.2096 34.9012 85.612 34.9001 84.9885C34.9001 83.7068 36.0108 82.6364 37.3734 82.6364H37.3882C38.736 82.6364 39.8616 83.6927 39.8616 84.9885C39.8616 86.2843 38.736 87.3406 37.3882 87.3406ZM52.5102 81.9737C51.7705 81.4241 50.8222 81.0437 49.785 81.016H49.6813C47.3858 81.016 45.5046 82.805 45.5046 84.9739C45.5046 87.1574 47.3858 88.9464 49.6813 88.9464H49.785C50.8217 88.9182 51.7546 88.5237 52.496 87.8473V88.8196H54.3914V78.5094H52.496L52.5102 81.9737ZM49.7856 87.3265C48.423 87.3265 47.2974 86.2561 47.2974 84.9603C47.2974 83.6781 48.423 82.6223 49.7856 82.6223C51.1482 82.6223 52.2742 83.6786 52.2742 84.9603C52.2737 86.2561 51.1482 87.3265 49.7856 87.3265ZM30.4414 80.9597V81.7065C30.0561 81.3119 29.8788 81.1856 29.4344 81.0301C29.0343 80.8897 28.4861 80.7624 27.9527 80.7483H27.8643C27.2272 80.7483 26.6647 80.8464 26.1609 81.0437C25.672 81.2415 25.2127 81.5509 24.7983 81.9737C24.4279 82.3405 24.1321 82.7904 23.9099 83.2841C23.7134 83.7791 23.613 84.3039 23.6135 84.833C23.6135 86.0307 24.0284 87.0306 24.8576 87.805C25.6725 88.5936 26.7091 89.0027 27.9532 89.0027H27.968C28.4718 89.0027 29.0195 88.8618 29.464 88.7063C29.908 88.5513 30.2344 88.4245 30.4414 88.1432V88.8618L32.367 88.8482L32.3522 80.9461L30.4414 80.9597ZM27.968 87.2138H27.9532C27.6301 87.2146 27.3101 87.1546 27.0114 87.0374C26.7127 86.9202 26.4414 86.748 26.2129 86.5308C25.9845 86.3135 25.8034 86.0554 25.6801 85.7714C25.5569 85.4874 25.4939 85.183 25.4947 84.8758C25.4955 84.2559 25.7548 83.6617 26.2157 83.2234C26.6766 82.7852 27.3014 82.5386 27.9532 82.5378H27.968C29.3158 82.5378 30.4265 83.594 30.4265 84.8758C30.4257 85.4956 30.1664 86.0898 29.7055 86.5281C29.2447 86.9664 28.6198 87.213 27.968 87.2138ZM61.8569 80.9315L61.8712 81.6778C61.4865 81.2978 61.2944 81.1705 60.8647 81.0014C60.3881 80.8415 59.8887 80.7514 59.3836 80.7342H59.2947C58.657 80.7342 58.0945 80.8323 57.5913 81.016C57.087 81.2138 56.6282 81.5374 56.2282 81.946C55.8435 82.3123 55.5471 82.7627 55.3392 83.2705C55.1368 83.7644 55.0313 84.2893 55.028 84.8194C55.028 86.003 55.4577 87.0024 56.288 87.7915C57.087 88.5659 58.139 88.9746 59.3836 88.9746C59.9016 88.9746 60.4493 88.8482 60.879 88.6792C61.3235 88.5237 61.6643 88.3968 61.8712 88.1155V88.8342L63.7968 88.8201L63.7677 80.932H61.8569V80.9315ZM59.3836 87.1997C58.0204 87.1856 56.9092 86.1429 56.9092 84.8471C56.9092 83.5654 58.0204 82.5232 59.3836 82.5091C60.7457 82.5091 61.8569 83.5654 61.8569 84.8471C61.8569 86.1434 60.7457 87.1997 59.3836 87.1997ZM73.1583 76.7622C73.143 76.7622 73.1282 76.7487 73.1282 76.7487C71.8391 76.7487 70.7882 77.7486 70.7882 78.9739C70.7882 80.1993 71.8391 81.1861 73.1282 81.1861H73.1583C74.4315 81.1715 75.4681 80.1857 75.4681 78.9739C75.4681 77.7622 74.4315 76.7763 73.1583 76.7622ZM73.1583 80.8328C72.9015 80.8332 72.6471 80.7853 72.4098 80.692C72.1724 80.5987 71.9568 80.4618 71.7751 80.2892C71.5935 80.1165 71.4495 79.9114 71.3513 79.6857C71.2532 79.46 71.2028 79.2182 71.203 78.9739C71.203 77.974 72.0762 77.1286 73.1583 77.1427C74.2394 77.1427 75.1125 77.9735 75.1125 78.988C75.1125 80.002 74.2394 80.8328 73.1583 80.8328Z" fill="black"/>
<path fill-rule="evenodd" clip-rule="evenodd" d="M73.8394 79.3398C73.7542 79.2598 73.66 79.1891 73.5584 79.129C73.7806 79.1003 73.9574 79.0157 74.0616 78.8889C74.1648 78.7908 74.2394 78.6358 74.2394 78.4662C74.2394 78.3258 74.1796 78.1844 74.1203 78.0722C74.0436 77.9738 73.9413 77.8962 73.8235 77.8467C73.7055 77.8045 73.5123 77.7909 73.2313 77.7909H72.1503V80.1988H72.6688V79.1848H72.7577C72.8757 79.1848 72.9646 79.1989 73.0234 79.213C73.0832 79.2276 73.1133 79.2553 73.1578 79.298C73.1578 79.3116 73.1721 79.3116 73.1721 79.3262C73.2308 79.3544 73.3197 79.4812 73.4531 79.6644L73.823 80.1988H74.4304L74.1193 79.7343C74.0018 79.5512 73.8981 79.3962 73.8394 79.3398ZM73.1583 78.8054H72.6694V78.1995H73.1583C73.306 78.1995 73.4097 78.1995 73.4393 78.2136C73.5122 78.2178 73.5808 78.248 73.6314 78.2981C73.6901 78.3399 73.706 78.4109 73.706 78.4808C73.706 78.5508 73.6907 78.6363 73.6462 78.6781C73.6028 78.7068 73.5584 78.7485 73.5129 78.7767C73.4541 78.7908 73.3361 78.7908 73.1583 78.8054ZM42.8239 66.0999H25.9244C30.9748 69.072 36.885 71.0441 43.6091 72.3681L42.8239 66.0999ZM55.7101 66.114L54.7026 72.0013C61.4569 70.8182 67.411 68.9593 72.5805 66.114H55.7101ZM53.7691 66.0858L44.4828 66.0994C45.7861 68.6769 47.4456 70.8464 49.3411 72.9171C51.2074 70.8041 52.4515 68.6211 53.7691 66.0858ZM78.7569 62.1702L19.6443 62.1415C17.6742 60.6485 16.3412 59.874 14.7563 57.8878H83.7178C82.178 59.4941 80.4158 60.9444 78.7569 62.1702ZM87.5686 53.0145L11.1718 53.0427C10.1499 51.6905 8.97943 49.7893 8.25394 48.2822H90.4875C89.7175 49.972 88.6798 51.5355 87.5686 53.0145ZM32.8999 43.1266L6.22459 43.1407C3.7809 37.7738 2.2405 32.2383 1.49966 25.3647C15.2453 27.6886 25.8503 33.0555 32.8999 43.1266ZM60.2276 43.1689H38.2915C37.8026 29.7453 41.7131 16.1244 49.267 7.92688C56.9394 15.9136 60.9092 29.4776 60.2276 43.1689ZM92.7385 43.1407L65.5441 43.1548C73.0535 33.1119 83.8364 27.4355 97.8037 25.4211C96.9306 32.1401 95.3008 37.8442 92.7385 43.1407ZM95.3008 13.7024C95.2717 13.6883 95.242 13.6883 95.2119 13.6883C92.3385 13.6883 89.9689 15.9282 89.9689 18.6607C89.9689 21.3932 92.339 23.6326 95.2119 23.6326H95.3008C98.1752 23.5908 100.5 21.3651 100.5 18.6607C100.5 15.9559 98.1747 13.7442 95.3008 13.7024ZM95.3008 22.8576C92.902 22.8576 90.932 20.97 90.932 18.6884C90.932 16.4344 92.902 14.5332 95.3008 14.5614C97.7307 14.5614 99.6849 16.4349 99.6849 18.7025C99.6849 20.9982 97.7307 22.8576 95.3008 22.8576Z" fill="black"/>
<path fill-rule="evenodd" clip-rule="evenodd" d="M96.8263 19.4909C96.6432 19.3148 96.4398 19.1588 96.2199 19.026C96.7089 18.9555 97.093 18.8005 97.3597 18.5046C97.5973 18.2651 97.7307 17.9269 97.7307 17.5329C97.7307 17.2088 97.6116 16.9129 97.464 16.6593C97.3005 16.4338 97.0486 16.2371 96.7819 16.1666C96.5162 16.0539 96.0717 15.998 95.4494 15.998H93.0798V21.4203H94.1911V19.1528H94.4276C94.6943 19.1528 94.8864 19.1664 95.0198 19.2091C95.1087 19.2514 95.2118 19.3078 95.3007 19.3923C95.3161 19.4064 95.3463 19.4205 95.3605 19.4346C95.4494 19.5614 95.6563 19.815 95.967 20.2377L96.7814 21.4208H98.1593L97.4783 20.3786C97.2116 19.9559 96.975 19.6318 96.8263 19.4909ZM95.3007 18.2797H94.1906V16.9416H95.3007C95.6272 16.9416 95.8495 16.9416 95.9231 16.9557C96.131 16.9698 96.2787 17.0684 96.3676 17.167C96.4866 17.2511 96.5162 17.4207 96.5162 17.5892C96.5162 17.7302 96.4861 17.8992 96.412 18.012C96.3231 18.0965 96.2199 18.181 96.0717 18.2233C95.9527 18.2515 95.7161 18.2656 95.3007 18.2797Z" fill="black"/>
</svg>
