<svg width="100" height="67" viewBox="0 0 100 67" fill="none" xmlns="http://www.w3.org/2000/svg">
<path d="M70.0734 2.91652C73.6539 1.12599 75.4911 1.40114 75.5373 3.19167C75.5823 5.53309 75.2148 8.65498 74.9846 10.9047C73.6083 23.1177 71.4041 33.0804 71.2207 45.6603C77.1438 30.3254 82.0562 19.7656 88.4385 6.68102C90.4586 2.50291 91.7899 3.28339 93.4426 2.50291C99.9166 -0.389986 100.146 1.40055 99.2734 4.98161C96.1521 17.9751 88.1627 59.0662 86.9237 65.3574C86.5562 67.194 84.5361 66.4591 84.0769 65.7248C81.6894 62.5568 79.1178 62.51 79.3929 60.3526C80.8627 49.8852 86.097 23.3934 87.4284 17.1491C80.4953 31.2893 73.3326 49.0579 69.6609 59.0662C68.8799 61.1787 67.4568 61.0414 66.5846 59.4798C65.2982 57.2295 62.9107 56.1284 62.5444 53.5574C61.258 45.3384 63.9669 29.6366 64.3343 19.6739C60.6154 30.5088 54.2799 51.6289 51.5249 61.1319C50.3775 65.081 46.5669 64.3923 47.5769 60.6272C51.8 44.6035 60.8456 16.3674 64.7473 6.22066C65.6657 3.78871 68.0982 3.92658 70.0734 2.91652ZM47.2089 0.942558C45.9686 0.66741 42.3876 2.59522 40.184 2.91711C39.4959 3.10114 38.8527 3.7893 38.6237 4.3396C35.1331 12.3739 32.0118 19.9964 29.3491 26.8822C25.3279 27.6197 21.3176 28.4156 17.3195 29.2698C20.5793 21.0059 23.8396 12.7881 27.0071 4.93605C28.568 0.98812 24.4367 0.620664 22.8284 4.56919C20.7627 9.66564 16.8598 19.2603 12.5444 30.4183C9.37633 31.1988 5.93255 32.071 2.44379 33.1272C-0.127217 33.8153 -0.219525 34.5035 0.882251 36.0656C1.52485 36.8917 2.71894 36.8 3.31598 37.4431C4.83136 39.0035 5.74971 40.8863 8.4574 41.1615C5.9787 47.5893 3.59053 54.155 1.47929 60.4449C0.101777 64.439 4.00414 65.2656 5.47338 61.042C7.86095 54.2929 10.3858 47.452 13.0036 40.5183C15.1615 40.0597 20.3497 38.9579 25.1704 37.8556C21.3598 48.4153 18.8805 56.3585 17.8698 60.2609C17.687 60.9952 18.0538 61.3627 18.1911 61.7295C19.4314 63.5662 20.7166 63.6579 22.3692 66C22.7828 66.6432 24.2976 66.9639 24.8491 65.4029C28.1402 55.4118 31.6455 45.4925 35.3627 35.652C36.7864 35.2846 39.358 34.6875 40.9183 32.3923C43.6734 28.2597 44.4544 29.0869 45.1888 27.8467C46.0148 26.2402 45.4178 24.8165 42.4799 25.1378C42.4799 25.1378 41.3775 25.2301 39.2657 25.4597C42.571 17.0574 45.5107 9.94137 47.5302 4.47747C48.2183 2.59522 48.3112 1.21771 47.2089 0.942558Z" fill="black"/>
<path d="M43.9793 53.1171C44.4568 52.5112 44.89 51.8858 45.2805 51.3082C47.0201 48.7343 45.3266 47.2213 43.5361 48.7366C43.2805 48.9716 43.0148 49.2278 42.7509 49.494C42.4573 48.5756 42.166 47.6565 41.8769 46.7366C42.6977 45.7307 43.4965 44.6982 44.1781 43.6402C47.0556 39.1775 41.4243 36.6159 38.99 39.5088C37.7053 41.0242 38.0266 42.539 38.3935 43.8704C38.5 44.2704 38.6657 44.842 38.871 45.5355C37.9782 46.4681 37.1147 47.4283 36.2817 48.4148C33.4811 51.6295 34.2598 55.7686 37.2 56.6792C38.9728 57.229 40.6456 56.4278 42.0947 55.1497C42.1645 55.3319 42.2314 55.5053 42.2965 55.6698C43.0769 57.5982 45.5107 57.0011 44.5462 54.6597C44.3911 54.2662 44.1971 53.7366 43.9793 53.1171ZM39.9935 49.0716C40.2314 49.8213 40.4876 50.6088 40.7432 51.3627C40.4231 51.6295 40.0982 51.8994 39.771 52.0887C38.6326 52.7473 37.7965 52.0426 39.2657 50.0686C39.5059 49.7278 39.7521 49.3976 39.9935 49.0716ZM40.9124 43.4497C40.8278 43.2361 40.7793 43.0266 40.7349 42.8603C39.9113 39.7834 43.4379 40.6053 41.6539 42.6307C41.4006 42.9177 41.1704 43.2017 40.9124 43.4497Z" fill="black"/>
</svg>
