<svg xmlns="http://www.w3.org/2000/svg" xmlns:xlink="http://www.w3.org/1999/xlink" width="500" zoomAndPan="magnify" viewBox="0 0 375 374.999991" height="500" preserveAspectRatio="xMidYMid meet" version="1.0"><defs><g/></defs><g fill="#ffffff" fill-opacity="1"><g transform="translate(128.523539, 213.180771)"><g><path d="M 23.339844 -2.941406 L 23.339844 -122.972656 L 9.414062 -122.972656 L 9.414062 0.195312 L 72.371094 0.195312 L 72.371094 -2.941406 Z M 23.339844 -2.941406 "/></g></g></g><g fill="#ffffff" fill-opacity="1"><g transform="translate(153.001623, 250.092726)"><g><path d="M 4.902344 -9.023438 L 4.902344 -4.511719 C 4.902344 -4.511719 16.867188 5.097656 38.050781 5.097656 C 59.230469 5.097656 79.433594 -9.609375 79.433594 -31.382812 C 79.433594 -75.316406 16.476562 -62.371094 16.476562 -98.066406 C 16.476562 -111.992188 26.085938 -123.367188 42.953125 -123.367188 C 59.625 -123.367188 70.410156 -115.324219 70.410156 -115.324219 L 70.214844 -119.445312 C 70.214844 -119.445312 58.445312 -126.699219 42.757812 -126.699219 C 27.261719 -126.699219 5.492188 -117.285156 5.492188 -92.769531 C 5.492188 -48.835938 68.253906 -65.3125 68.253906 -26.476562 C 68.253906 -7.453125 53.738281 1.960938 38.050781 1.960938 C 21.183594 1.960938 11.769531 -3.726562 4.902344 -9.023438 Z M 4.902344 -9.023438 "/></g></g></g><g fill="#ffffff" fill-opacity="1"><g transform="translate(88.626676, 294.412581)"><g><path d="M 5.6875 -0.714844 L 5.6875 -29.960938 L 2.292969 -29.960938 L 2.292969 0.046875 L 17.632812 0.046875 L 17.632812 -0.714844 Z M 5.6875 -0.714844 "/></g></g></g><g fill="#ffffff" fill-opacity="1"><g transform="translate(108.122263, 294.412581)"><g><path d="M 24.992188 0.046875 L 28.671875 0.046875 L 15.53125 -30.535156 L 15.289062 -30.535156 L 1.671875 0.046875 L 2.722656 0.046875 L 8.125 -11.992188 L 19.78125 -11.992188 Z M 8.457031 -12.804688 L 14.046875 -25.375 L 19.449219 -12.804688 Z M 8.457031 -12.804688 "/></g></g></g><g fill="#ffffff" fill-opacity="1"><g transform="translate(138.51245, 294.412581)"><g><path d="M 1.195312 -2.199219 L 1.195312 -1.097656 C 1.195312 -1.097656 4.109375 1.242188 9.269531 1.242188 C 14.429688 1.242188 19.351562 -2.339844 19.351562 -7.644531 C 19.351562 -18.347656 4.015625 -15.195312 4.015625 -23.890625 C 4.015625 -27.285156 6.355469 -30.054688 10.464844 -30.054688 C 14.527344 -30.054688 17.15625 -28.097656 17.15625 -28.097656 L 17.105469 -29.101562 C 17.105469 -29.101562 14.238281 -30.867188 10.417969 -30.867188 C 6.640625 -30.867188 1.339844 -28.574219 1.339844 -22.601562 C 1.339844 -11.898438 16.628906 -15.910156 16.628906 -6.449219 C 16.628906 -1.816406 13.09375 0.476562 9.269531 0.476562 C 5.160156 0.476562 2.867188 -0.90625 1.195312 -2.199219 Z M 1.195312 -2.199219 "/></g></g></g><g fill="#ffffff" fill-opacity="1"><g transform="translate(159.776024, 294.412581)"><g><path d="M 23.460938 -29.960938 L 1.578125 -29.960938 L 1.578125 -29.195312 L 10.800781 -29.195312 L 10.800781 0.046875 L 14.238281 0.046875 L 14.238281 -29.195312 L 23.460938 -29.195312 Z M 23.460938 -29.960938 "/></g></g></g><g fill="#ffffff" fill-opacity="1"><g transform="translate(184.86226, 294.412581)"><g/></g></g><g fill="#ffffff" fill-opacity="1"><g transform="translate(196.808089, 294.412581)"><g><path d="M 1.195312 -2.199219 L 1.195312 -1.097656 C 1.195312 -1.097656 4.109375 1.242188 9.269531 1.242188 C 14.429688 1.242188 19.351562 -2.339844 19.351562 -7.644531 C 19.351562 -18.347656 4.015625 -15.195312 4.015625 -23.890625 C 4.015625 -27.285156 6.355469 -30.054688 10.464844 -30.054688 C 14.527344 -30.054688 17.15625 -28.097656 17.15625 -28.097656 L 17.105469 -29.101562 C 17.105469 -29.101562 14.238281 -30.867188 10.417969 -30.867188 C 6.640625 -30.867188 1.339844 -28.574219 1.339844 -22.601562 C 1.339844 -11.898438 16.628906 -15.910156 16.628906 -6.449219 C 16.628906 -1.816406 13.09375 0.476562 9.269531 0.476562 C 5.160156 0.476562 2.867188 -0.90625 1.195312 -2.199219 Z M 1.195312 -2.199219 "/></g></g></g><g fill="#ffffff" fill-opacity="1"><g transform="translate(218.071664, 294.412581)"><g><path d="M 17.488281 -29.195312 L 17.488281 -29.960938 L 2.292969 -29.960938 L 2.292969 0.046875 L 17.488281 0.046875 L 17.488281 -0.714844 L 5.6875 -0.714844 L 5.6875 -15.242188 L 16.199219 -15.242188 L 16.199219 -16.007812 L 5.6875 -16.007812 L 5.6875 -29.195312 Z M 17.488281 -29.195312 "/></g></g></g><g fill="#ffffff" fill-opacity="1"><g transform="translate(237.615033, 294.412581)"><g><path d="M 17.488281 -29.195312 L 17.488281 -29.960938 L 2.292969 -29.960938 L 2.292969 0.046875 L 17.488281 0.046875 L 17.488281 -0.714844 L 5.6875 -0.714844 L 5.6875 -15.242188 L 16.199219 -15.242188 L 16.199219 -16.007812 L 5.6875 -16.007812 L 5.6875 -29.195312 Z M 17.488281 -29.195312 "/></g></g></g><g fill="#ffffff" fill-opacity="1"><g transform="translate(257.158403, 294.412581)"><g><path d="M 26.664062 -29.960938 L 25.898438 -29.960938 L 25.898438 -4.539062 L 2.390625 -30.535156 L 2.292969 -30.535156 L 2.292969 0.046875 L 3.058594 0.046875 L 3.058594 -25.085938 L 26.519531 0.90625 L 26.664062 0.90625 Z M 26.664062 -29.960938 "/></g></g></g></svg>